<mxfile host="app.diagrams.net" modified="2020-08-17T13:48:20.643Z" agent="5.0 (Windows NT 10.0; Win64; x64) AppleWebKit/537.36 (KHTML, like Gecko) Chrome/84.0.4147.125 Safari/537.36 Edg/84.0.522.59" etag="x4apdUssIhNgQgcVX9D-" version="13.6.2" type="github">
  <diagram id="dZOid5gWQko18zOokrMj" name="Page-1">
    <mxGraphModel dx="1865" dy="532" grid="1" gridSize="10" guides="1" tooltips="1" connect="1" arrows="1" fold="1" page="1" pageScale="1" pageWidth="827" pageHeight="1169" math="0" shadow="0">
      <root>
        <mxCell id="0" />
        <mxCell id="1" parent="0" />
        <mxCell id="eO-Gy8Qk9Z8C09rzP-s1-12" style="edgeStyle=orthogonalEdgeStyle;rounded=0;orthogonalLoop=1;jettySize=auto;html=1;exitX=0.5;exitY=1;exitDx=0;exitDy=0;exitPerimeter=0;entryX=0.5;entryY=0;entryDx=0;entryDy=0;fillColor=#d5e8d4;strokeColor=#82b366;" edge="1" parent="1" source="eO-Gy8Qk9Z8C09rzP-s1-2" target="eO-Gy8Qk9Z8C09rzP-s1-5">
          <mxGeometry relative="1" as="geometry" />
        </mxCell>
        <mxCell id="eO-Gy8Qk9Z8C09rzP-s1-2" value="START" style="strokeWidth=2;html=1;shape=mxgraph.flowchart.terminator;whiteSpace=wrap;fillColor=#d5e8d4;strokeColor=#82b366;" vertex="1" parent="1">
          <mxGeometry x="-10" y="10" width="190" height="100" as="geometry" />
        </mxCell>
        <mxCell id="eO-Gy8Qk9Z8C09rzP-s1-4" value="STOP" style="strokeWidth=2;html=1;shape=mxgraph.flowchart.terminator;whiteSpace=wrap;fillColor=#d5e8d4;strokeColor=#82b366;" vertex="1" parent="1">
          <mxGeometry x="-10" y="770" width="190" height="100" as="geometry" />
        </mxCell>
        <mxCell id="eO-Gy8Qk9Z8C09rzP-s1-13" style="edgeStyle=orthogonalEdgeStyle;rounded=0;orthogonalLoop=1;jettySize=auto;html=1;exitX=0.5;exitY=1;exitDx=0;exitDy=0;entryX=0.5;entryY=0;entryDx=0;entryDy=0;entryPerimeter=0;fillColor=#d5e8d4;strokeColor=#82b366;" edge="1" parent="1" source="eO-Gy8Qk9Z8C09rzP-s1-5" target="eO-Gy8Qk9Z8C09rzP-s1-7">
          <mxGeometry relative="1" as="geometry" />
        </mxCell>
        <mxCell id="eO-Gy8Qk9Z8C09rzP-s1-5" value="n1,n2" style="shape=parallelogram;html=1;strokeWidth=2;perimeter=parallelogramPerimeter;whiteSpace=wrap;rounded=1;arcSize=12;size=0.23;fillColor=#d5e8d4;strokeColor=#82b366;" vertex="1" parent="1">
          <mxGeometry x="10" y="170" width="150" height="100" as="geometry" />
        </mxCell>
        <mxCell id="eO-Gy8Qk9Z8C09rzP-s1-14" style="edgeStyle=orthogonalEdgeStyle;rounded=0;orthogonalLoop=1;jettySize=auto;html=1;exitX=0.5;exitY=1;exitDx=0;exitDy=0;exitPerimeter=0;entryX=0.5;entryY=0;entryDx=0;entryDy=0;entryPerimeter=0;fillColor=#d5e8d4;strokeColor=#82b366;" edge="1" parent="1" source="eO-Gy8Qk9Z8C09rzP-s1-7" target="eO-Gy8Qk9Z8C09rzP-s1-11">
          <mxGeometry relative="1" as="geometry" />
        </mxCell>
        <mxCell id="eO-Gy8Qk9Z8C09rzP-s1-17" style="edgeStyle=orthogonalEdgeStyle;rounded=0;orthogonalLoop=1;jettySize=auto;html=1;exitX=1;exitY=0.5;exitDx=0;exitDy=0;exitPerimeter=0;entryX=0;entryY=0.5;entryDx=0;entryDy=0;entryPerimeter=0;fillColor=#d5e8d4;strokeColor=#82b366;" edge="1" parent="1" source="eO-Gy8Qk9Z8C09rzP-s1-7" target="eO-Gy8Qk9Z8C09rzP-s1-8">
          <mxGeometry relative="1" as="geometry" />
        </mxCell>
        <mxCell id="eO-Gy8Qk9Z8C09rzP-s1-7" value="n1 &amp;gt; n2" style="strokeWidth=2;html=1;shape=mxgraph.flowchart.decision;whiteSpace=wrap;fillColor=#d5e8d4;strokeColor=#82b366;" vertex="1" parent="1">
          <mxGeometry x="10" y="320" width="150" height="140" as="geometry" />
        </mxCell>
        <mxCell id="eO-Gy8Qk9Z8C09rzP-s1-18" style="edgeStyle=orthogonalEdgeStyle;rounded=0;orthogonalLoop=1;jettySize=auto;html=1;exitX=1;exitY=0.5;exitDx=0;exitDy=0;exitPerimeter=0;entryX=0.997;entryY=0.609;entryDx=0;entryDy=0;entryPerimeter=0;fillColor=#d5e8d4;strokeColor=#82b366;" edge="1" parent="1" source="eO-Gy8Qk9Z8C09rzP-s1-8" target="eO-Gy8Qk9Z8C09rzP-s1-10">
          <mxGeometry relative="1" as="geometry" />
        </mxCell>
        <mxCell id="eO-Gy8Qk9Z8C09rzP-s1-8" value="n1&lt;span style=&quot;color: rgba(0 , 0 , 0 , 0) ; font-family: monospace ; font-size: 0px&quot;&gt;%3CmxGraphModel%3E%3Croot%3E%3CmxCell%20id%3D%220%22%2F%3E%3CmxCell%20id%3D%221%22%20parent%3D%220%22%2F%3E%3CmxCell%20id%3D%222%22%20value%3D%22n1%20%26amp%3Bgt%3B%20n2%22%20style%3D%22strokeWidth%3D2%3Bhtml%3D1%3Bshape%3Dmxgraph.flowchart.decision%3BwhiteSpace%3Dwrap%3B%22%20vertex%3D%221%22%20parent%3D%221%22%3E%3CmxGeometry%20x%3D%2210%22%20y%3D%22320%22%20width%3D%22150%22%20height%3D%22140%22%20as%3D%22geometry%22%2F%3E%3C%2FmxCell%3E%3C%2Froot%3E%3C%2FmxGraphModel%3E&lt;/span&gt;" style="strokeWidth=2;html=1;shape=mxgraph.flowchart.display;whiteSpace=wrap;fillColor=#d5e8d4;strokeColor=#82b366;" vertex="1" parent="1">
          <mxGeometry x="300" y="345" width="150" height="90" as="geometry" />
        </mxCell>
        <mxCell id="eO-Gy8Qk9Z8C09rzP-s1-16" style="edgeStyle=orthogonalEdgeStyle;rounded=0;orthogonalLoop=1;jettySize=auto;html=1;exitX=0.5;exitY=1;exitDx=0;exitDy=0;exitPerimeter=0;entryX=0.5;entryY=0;entryDx=0;entryDy=0;entryPerimeter=0;fillColor=#d5e8d4;strokeColor=#82b366;" edge="1" parent="1" source="eO-Gy8Qk9Z8C09rzP-s1-10" target="eO-Gy8Qk9Z8C09rzP-s1-4">
          <mxGeometry relative="1" as="geometry" />
        </mxCell>
        <mxCell id="eO-Gy8Qk9Z8C09rzP-s1-10" value="" style="verticalLabelPosition=bottom;verticalAlign=top;html=1;shape=mxgraph.flowchart.on-page_reference;fillColor=#d5e8d4;strokeColor=#82b366;" vertex="1" parent="1">
          <mxGeometry x="50" y="650" width="70" height="70" as="geometry" />
        </mxCell>
        <mxCell id="eO-Gy8Qk9Z8C09rzP-s1-15" style="edgeStyle=orthogonalEdgeStyle;rounded=0;orthogonalLoop=1;jettySize=auto;html=1;exitX=0.5;exitY=1;exitDx=0;exitDy=0;exitPerimeter=0;entryX=0.5;entryY=0;entryDx=0;entryDy=0;entryPerimeter=0;fillColor=#d5e8d4;strokeColor=#82b366;" edge="1" parent="1" source="eO-Gy8Qk9Z8C09rzP-s1-11" target="eO-Gy8Qk9Z8C09rzP-s1-10">
          <mxGeometry relative="1" as="geometry" />
        </mxCell>
        <mxCell id="eO-Gy8Qk9Z8C09rzP-s1-11" value="n2" style="strokeWidth=2;html=1;shape=mxgraph.flowchart.display;whiteSpace=wrap;fillColor=#d5e8d4;strokeColor=#82b366;" vertex="1" parent="1">
          <mxGeometry x="10" y="500" width="150" height="90" as="geometry" />
        </mxCell>
        <mxCell id="eO-Gy8Qk9Z8C09rzP-s1-19" value="T" style="text;html=1;strokeColor=#82b366;fillColor=#d5e8d4;align=center;verticalAlign=middle;whiteSpace=wrap;rounded=0;" vertex="1" parent="1">
          <mxGeometry x="210" y="345" width="60" height="35" as="geometry" />
        </mxCell>
        <mxCell id="eO-Gy8Qk9Z8C09rzP-s1-21" value="F" style="text;html=1;strokeColor=#82b366;fillColor=#d5e8d4;align=center;verticalAlign=middle;whiteSpace=wrap;rounded=0;" vertex="1" parent="1">
          <mxGeometry y="460" width="60" height="35" as="geometry" />
        </mxCell>
        <mxCell id="eO-Gy8Qk9Z8C09rzP-s1-22" value="&lt;div style=&quot;text-align: left ; font-size: 20px&quot;&gt;&lt;font style=&quot;font-size: 20px&quot;&gt;1. START&lt;/font&gt;&lt;/div&gt;&lt;div style=&quot;text-align: left ; font-size: 20px&quot;&gt;&lt;span&gt;&lt;font style=&quot;font-size: 20px&quot;&gt;2. INPUT n1,n2&lt;/font&gt;&lt;/span&gt;&lt;/div&gt;&lt;div style=&quot;text-align: left ; font-size: 20px&quot;&gt;&lt;span&gt;&lt;font style=&quot;font-size: 20px&quot;&gt;3 IF n1 &amp;gt; n2&lt;/font&gt;&lt;/span&gt;&lt;/div&gt;&lt;blockquote style=&quot;margin: 0px 0px 0px 40px ; border: none ; padding: 0px ; font-size: 20px&quot;&gt;&lt;div style=&quot;text-align: left&quot;&gt;&lt;span&gt;&lt;font style=&quot;font-size: 20px&quot;&gt;4. PRINT n1&lt;/font&gt;&lt;/span&gt;&lt;/div&gt;&lt;/blockquote&gt;&lt;div style=&quot;text-align: left ; font-size: 20px&quot;&gt;&lt;span&gt;&lt;font style=&quot;font-size: 20px&quot;&gt;5. ELSE&lt;/font&gt;&lt;/span&gt;&lt;/div&gt;&lt;blockquote style=&quot;margin: 0px 0px 0px 40px ; border: none ; padding: 0px ; font-size: 20px&quot;&gt;&lt;div style=&quot;text-align: left&quot;&gt;&lt;span&gt;&lt;font style=&quot;font-size: 20px&quot;&gt;6. PRINT n2&lt;/font&gt;&lt;/span&gt;&lt;/div&gt;&lt;/blockquote&gt;&lt;div style=&quot;text-align: left ; font-size: 20px&quot;&gt;&lt;font style=&quot;font-size: 20px&quot;&gt;7. STOP&lt;/font&gt;&lt;/div&gt;" style="text;html=1;strokeColor=none;fillColor=none;align=center;verticalAlign=middle;whiteSpace=wrap;rounded=0;" vertex="1" parent="1">
          <mxGeometry x="300" y="20" width="330" height="250" as="geometry" />
        </mxCell>
      </root>
    </mxGraphModel>
  </diagram>
</mxfile>
